<svg xmlns="http://www.w3.org/2000/svg" viewBox="0 0 800 600">
  <defs>
    <linearGradient id="bg3" x1="0%" y1="0%" x2="100%" y2="100%">
      <stop offset="0%" style="stop-color:#0F172A"/>
      <stop offset="100%" style="stop-color:#1E293B"/>
    </linearGradient>
  </defs>
  <rect width="800" height="600" fill="url(#bg3)"/>
  <!-- Grid -->
  <g opacity="0.05" stroke="#A78BFA" stroke-width="1">
    <line x1="0" y1="120" x2="800" y2="120"/>
    <line x1="0" y1="240" x2="800" y2="240"/>
    <line x1="0" y1="360" x2="800" y2="360"/>
    <line x1="0" y1="480" x2="800" y2="480"/>
  </g>
  <!-- Filter panel mockup -->
  <rect x="60" y="140" width="220" height="340" rx="12" fill="#1E293B" stroke="#334155" stroke-width="1"/>
  <rect x="80" y="165" width="180" height="8" rx="4" fill="#334155"/>
  <rect x="80" y="190" width="180" height="32" rx="6" fill="#0F172A" stroke="#475569" stroke-width="1"/>
  <rect x="80" y="240" width="180" height="8" rx="4" fill="#334155"/>
  <rect x="80" y="265" width="180" height="32" rx="6" fill="#0F172A" stroke="#475569" stroke-width="1"/>
  <rect x="80" y="315" width="180" height="8" rx="4" fill="#334155"/>
  <rect x="80" y="340" width="85" height="28" rx="6" fill="#0F172A" stroke="#475569" stroke-width="1"/>
  <rect x="175" y="340" width="85" height="28" rx="6" fill="#0F172A" stroke="#475569" stroke-width="1"/>
  <rect x="80" y="400" width="180" height="36" rx="8" fill="#22C55E"/>
  <text x="170" y="424" text-anchor="middle" fill="white" font-family="system-ui" font-size="13" font-weight="600">Aplicar Filtros</text>
  <!-- Dashboard mockup -->
  <rect x="320" y="140" width="420" height="340" rx="12" fill="#1E293B" stroke="#334155" stroke-width="1"/>
  <!-- Mini chart inside -->
  <polyline fill="none" stroke="#22C55E" stroke-width="2" stroke-linecap="round"
    points="350,380 390,350 430,360 470,310 510,290 550,300 590,260 630,240 670,220 700,200"/>
  <polygon fill="#22C55E" opacity="0.06"
    points="350,380 390,350 430,360 470,310 510,290 550,300 590,260 630,240 670,220 700,200 700,440 350,440"/>
  <!-- Mini KPIs inside -->
  <rect x="350" y="165" width="110" height="60" rx="8" fill="#0F172A" stroke="#334155" stroke-width="1"/>
  <text x="405" y="190" text-anchor="middle" fill="#94A3B8" font-family="system-ui" font-size="9">TOTAL</text>
  <text x="405" y="212" text-anchor="middle" fill="#22C55E" font-family="system-ui" font-size="20" font-weight="700">845</text>
  <rect x="480" y="165" width="110" height="60" rx="8" fill="#0F172A" stroke="#334155" stroke-width="1"/>
  <text x="535" y="190" text-anchor="middle" fill="#94A3B8" font-family="system-ui" font-size="9">PESO</text>
  <text x="535" y="212" text-anchor="middle" fill="#38BDF8" font-family="system-ui" font-size="20" font-weight="700">21.1kg</text>
  <rect x="610" y="165" width="110" height="60" rx="8" fill="#0F172A" stroke="#334155" stroke-width="1"/>
  <text x="665" y="190" text-anchor="middle" fill="#94A3B8" font-family="system-ui" font-size="9">OEE</text>
  <text x="665" y="212" text-anchor="middle" fill="#FBBF24" font-family="system-ui" font-size="20" font-weight="700">4.5%</text>
  <!-- Title -->
  <text x="400" y="80" text-anchor="middle" fill="white" font-family="system-ui, sans-serif" font-size="28" font-weight="600">
    Dashboard Configurable
  </text>
  <text x="400" y="560" text-anchor="middle" fill="#94A3B8" font-family="system-ui, sans-serif" font-size="16">
    Filtros avanzados y widgets personalizables
  </text>
</svg>
